/* XPM */
static char * collapse_xpm[] = {
"9 20 4 1",
" 	c None",
".	c #FFFFFF",
"+	c #B2B2B2",
"@	c #FDFDFD",
".........",
".........",
"..+@.+@..",
"..@@.@@..",
".........",
"..+@.+@..",
"..@@.@@..",
".........",
"..+@.+@..",
"..@@.@@..",
".........",
"..+@.+@..",
"..@@.@@..",
".........",
"..+@.+@..",
"..@@.@@..",
".........",
"..+@.+@..",
"..@@.@@..",
"........."};
