/* XPM */
static char * icewm_xpm[] = {
"20 20 3 1",
" 	c None",
".	c #FFFFFF",
"+	c #050608",
"....................",
"....................",
"....................",
"....................",
"....++++++++++++....",
"....................",
"....++++++++++++....",
"....................",
"....++++++++++++....",
"....................",
"....++++++++++++....",
"....................",
"....++++++++++++....",
"....................",
"....++++++++++++....",
"....................",
"....................",
"....................",
"....................",
"...................."};
